<svg width="40" height="44" viewBox="0 0 40 44" fill="none" xmlns="http://www.w3.org/2000/svg">
<g clip-path="url(#clip0_235_1222)">
<rect width="40" height="44" fill="#EFEFEF"/>
<g filter="url(#filter0_d_235_1222)">
<path d="M36.25 5.5H3.75C1.67891 5.5 0 7.3468 0 9.625V34.375C0 36.6532 1.67891 38.5 3.75 38.5H36.25C38.3211 38.5 40 36.6532 40 34.375V9.625C40 7.3468 38.3211 5.5 36.25 5.5ZM36.25 9.625V13.1317C34.4983 14.7008 31.7056 17.1408 25.7354 22.2832C24.4197 23.4216 21.8134 26.1565 20 26.1247C18.1869 26.1569 15.5798 23.4212 14.2646 22.2832C8.29531 17.1415 5.50195 14.7011 3.75 13.1317V9.625H36.25ZM3.75 34.375V18.4248C5.54016 19.9933 8.07883 22.1942 11.9483 25.5272C13.6559 27.0058 16.6462 30.2698 20 30.2499C23.3373 30.2698 26.2898 27.0531 28.051 25.5279C31.9204 22.195 34.4598 19.9934 36.25 18.4249V34.375H3.75Z" fill="#262626"/>
<path d="M36.75 9.625V9.125H36.25H3.75H3.25V9.625V13.1317V13.3551L3.41638 13.5041C5.17234 15.0771 7.96898 17.5203 13.9379 22.6616C14.1391 22.8358 14.3853 23.0616 14.6623 23.3157C15.2318 23.8381 15.9311 24.4797 16.636 25.0354C17.1697 25.4562 17.7345 25.8518 18.2936 26.1419C18.8436 26.4272 19.4301 26.6327 20.0001 26.6247C20.5701 26.6325 21.1565 26.427 21.7064 26.1418C22.2656 25.8517 22.8303 25.4561 23.3639 25.0354C24.0686 24.4798 24.7679 23.8384 25.3373 23.316C25.6145 23.0618 25.8608 22.8358 26.0622 22.6616C32.032 17.5195 34.8279 15.0768 36.5836 13.5041L36.75 13.3551V13.1317V9.625ZM3.25 34.375V34.875H3.75H36.25H36.75V34.375V18.4249V17.3221L35.9205 18.0488C34.1319 19.616 31.5938 21.8164 27.7247 25.1491L27.7237 25.1499C27.4534 25.384 27.1654 25.6476 26.8591 25.9279C26.1223 26.6022 25.2797 27.3733 24.324 28.0628C22.9796 29.0328 21.5135 29.7589 20.003 29.7499V29.7499L19.997 29.7499C18.4791 29.7589 16.9998 29.0217 15.6499 28.0453C14.692 27.3525 13.8523 26.5821 13.1266 25.9164C12.8231 25.6379 12.5395 25.3778 12.2756 25.1492L12.2746 25.1484C8.40546 21.8157 5.86805 19.6158 4.0795 18.0488L3.25 17.322V18.4248V34.375ZM3.75 6H36.25C38.0012 6 39.5 7.57703 39.5 9.625V34.375C39.5 36.423 38.0012 38 36.25 38H3.75C1.99883 38 0.5 36.423 0.5 34.375V9.625C0.5 7.57703 1.99883 6 3.75 6Z" stroke="black"/>
</g>
</g>
<defs>
<filter id="filter0_d_235_1222" x="-4" y="5.5" width="48" height="41" filterUnits="userSpaceOnUse" color-interpolation-filters="sRGB">
<feFlood flood-opacity="0" result="BackgroundImageFix"/>
<feColorMatrix in="SourceAlpha" type="matrix" values="0 0 0 0 0 0 0 0 0 0 0 0 0 0 0 0 0 0 127 0" result="hardAlpha"/>
<feOffset dy="4"/>
<feGaussianBlur stdDeviation="2"/>
<feComposite in2="hardAlpha" operator="out"/>
<feColorMatrix type="matrix" values="0 0 0 0 0 0 0 0 0 0 0 0 0 0 0 0 0 0 0.25 0"/>
<feBlend mode="normal" in2="BackgroundImageFix" result="effect1_dropShadow_235_1222"/>
<feBlend mode="normal" in="SourceGraphic" in2="effect1_dropShadow_235_1222" result="shape"/>
</filter>
<clipPath id="clip0_235_1222">
<rect width="40" height="44" fill="white"/>
</clipPath>
</defs>
</svg>
